<?xml version="1.0" ?><!DOCTYPE svg  PUBLIC '-//W3C//DTD SVG 1.1//EN'  'http://www.w3.org/Graphics/SVG/1.1/DTD/svg11.dtd'><svg enable-background="new 0 0 128 128" height="128px" id="Layer_1" version="1.1" viewBox="0 0 128 128" width="128px" xml:space="preserve" xmlns="http://www.w3.org/2000/svg" xmlns:xlink="http://www.w3.org/1999/xlink"><g><circle cx="64" cy="64" fill="#7BB1BA" r="64"/><path d="M89.768,26.854l-2.426,4.549L47.442,52.841L34.938,98.1l-2.901,3.297l26.623,26.365   C60.422,127.907,62.199,128,64,128c35.111,0,63.605-28.277,63.982-63.301L89.768,26.854z" fill="#639FA5"/><g><g><polygon fill="#C17C87" points="60.673,70.689 58.568,82.627 50.898,83.788 45.261,64.887    "/><polygon fill="#C17C87" points="71.662,70.689 73.767,82.627 81.436,83.788 87.074,64.887    "/></g><path d="M91.584,38.969C91.584,38.969,91.584,38.969,91.584,38.969c1.896-6.162,0.262-12.135-3.654-13.341    c-2.907-0.896-6.252,1.091-8.559,4.693c-3.981-1.528-8.461-2.391-13.203-2.391s-9.223,0.862-13.203,2.391    c-2.308-3.603-5.652-5.589-8.559-4.693c-3.918,1.206-5.553,7.179-3.655,13.34c0,0.001,0,0.001,0,0.001    c-2.784,3.517-4.392,7.653-4.392,12.082c0,12.769,13.345,23.12,29.809,23.12c16.463,0,29.807-10.352,29.807-23.12    C95.975,46.622,94.368,42.485,91.584,38.969z" fill="#FACACC"/><g><circle cx="56.085" cy="42.494" fill="#FFFFFF" r="3.981"/><circle cx="76.25" cy="42.494" fill="#FFFFFF" r="3.982"/><circle cx="56.085" cy="42.494" fill="#351E15" r="1.878"/><circle cx="76.25" cy="42.494" fill="#351E15" r="1.877"/></g><ellipse cx="66.167" cy="56.43" fill="#D3919B" rx="12.593" ry="9.174"/><circle cx="72.798" cy="56.688" fill="#995023" r="4.314"/><circle cx="72.798" cy="56.688" fill="#132528" r="2.601"/><circle cx="60.639" cy="56.688" fill="#995023" r="4.314"/><circle cx="60.64" cy="56.688" fill="#132528" r="2.601"/><path d="M73.301,64.887c0,0-2.744,4.962-7.414,4.962c-4.669,0-6.854-4.962-6.854-4.962    S65.867,69.979,73.301,64.887z" fill="#491E1E"/><g><ellipse cx="39.742" cy="85.359" fill="#F2B359" rx="14.113" ry="4.373"/><path d="M53.84,85.461c-0.173,2.367-6.413,4.271-14.097,4.271c-7.683,0-13.923-1.904-14.097-4.271v2.852     c-0.002,0.035-0.018,0.068-0.018,0.104c0,2.413,6.319,4.37,14.114,4.37c7.796,0,14.112-1.957,14.112-4.37     c0-0.035-0.014-0.068-0.016-0.104V85.461z" fill="#CD8833"/><ellipse cx="39.742" cy="85.359" fill="#FDCE8C" rx="12.01" ry="3.72"/><ellipse cx="39.743" cy="85.359" fill="#F2B359" rx="11.099" ry="3.438"/><ellipse cx="39.742" cy="81.371" fill="#F2B359" rx="14.113" ry="4.37"/><path d="M53.84,81.471c-0.173,2.369-6.413,4.271-14.097,4.271c-7.683,0-13.923-1.901-14.097-4.271v2.854     c-0.002,0.034-0.018,0.067-0.018,0.102c0,2.414,6.319,4.371,14.114,4.371c7.796,0,14.112-1.957,14.112-4.371     c0-0.034-0.014-0.067-0.016-0.102V81.471z" fill="#CD8833"/><ellipse cx="39.742" cy="81.371" fill="#FDCE8C" rx="12.01" ry="3.719"/><ellipse cx="39.743" cy="81.371" fill="#F2B359" rx="11.099" ry="3.437"/><ellipse cx="39.742" cy="77.382" fill="#F2B359" rx="14.113" ry="4.37"/><path d="M53.84,77.48c-0.173,2.369-6.413,4.271-14.097,4.271c-7.683,0-13.923-1.902-14.097-4.271v2.855     c-0.002,0.033-0.018,0.066-0.018,0.1c0,2.416,6.319,4.372,14.114,4.372c7.796,0,14.112-1.956,14.112-4.372     c0-0.033-0.014-0.066-0.016-0.1V77.48z" fill="#CD8833"/><ellipse cx="39.742" cy="77.382" fill="#FDCE8C" rx="12.01" ry="3.719"/><ellipse cx="39.743" cy="77.382" fill="#F2B359" rx="11.099" ry="3.437"/><ellipse cx="39.742" cy="73.391" fill="#F2B359" rx="14.113" ry="4.373"/><path d="M53.84,73.492c-0.173,2.368-6.413,4.271-14.097,4.271c-7.683,0-13.923-1.903-14.097-4.271v2.854     c-0.002,0.034-0.018,0.067-0.018,0.102c0,2.414,6.319,4.371,14.114,4.371c7.796,0,14.112-1.957,14.112-4.371     c0-0.034-0.014-0.067-0.016-0.102V73.492z" fill="#CD8833"/><ellipse cx="39.742" cy="73.391" fill="#FDCE8C" rx="12.01" ry="3.721"/><ellipse cx="39.743" cy="73.391" fill="#F2B359" rx="11.099" ry="3.438"/><ellipse cx="39.742" cy="69.402" fill="#F2B359" rx="14.113" ry="4.371"/><path d="M53.84,69.504c-0.173,2.366-6.413,4.27-14.097,4.27c-7.683,0-13.923-1.903-14.097-4.27v2.852     c-0.002,0.035-0.018,0.068-0.018,0.102c0,2.414,6.319,4.372,14.114,4.372c7.796,0,14.112-1.958,14.112-4.372     c0-0.033-0.014-0.066-0.016-0.102V69.504z" fill="#CD8833"/><ellipse cx="39.742" cy="69.402" fill="#FDCE8C" rx="12.01" ry="3.719"/><ellipse cx="39.743" cy="69.402" fill="#F2B359" rx="11.099" ry="3.438"/><ellipse cx="39.742" cy="65.412" fill="#F2B359" rx="14.113" ry="4.372"/><path d="M53.84,65.514c-0.173,2.367-6.413,4.271-14.097,4.271c-7.683,0-13.923-1.903-14.097-4.271v2.854     c-0.002,0.034-0.018,0.067-0.018,0.102c0,2.414,6.319,4.371,14.114,4.371c7.796,0,14.112-1.957,14.112-4.371     c0-0.034-0.014-0.067-0.016-0.102V65.514z" fill="#CD8833"/><ellipse cx="39.742" cy="65.412" fill="#FDCE8C" rx="12.01" ry="3.72"/><ellipse cx="39.743" cy="65.412" fill="#F2B359" rx="11.099" ry="3.438"/><ellipse cx="39.742" cy="61.424" fill="#F2B359" rx="14.113" ry="4.371"/><path d="M53.84,61.523c-0.173,2.369-6.413,4.271-14.097,4.271c-7.683,0-13.923-1.902-14.097-4.271v2.854     c-0.002,0.033-0.018,0.067-0.018,0.101c0,2.414,6.319,4.372,14.114,4.372c7.796,0,14.112-1.958,14.112-4.372     c0-0.033-0.014-0.067-0.016-0.101V61.523z" fill="#CD8833"/><ellipse cx="39.742" cy="61.424" fill="#FDCE8C" rx="12.01" ry="3.72"/><ellipse cx="39.743" cy="61.424" fill="#F2B359" rx="11.099" ry="3.438"/></g><g><path d="M102.371,83.707c0,2.416-6.317,4.373-14.112,4.373c-7.798,0-14.112-1.957-14.112-4.373     c0-2.413,6.314-4.369,14.112-4.369C96.054,79.338,102.371,81.294,102.371,83.707z" fill="#F2B359"/><path d="M102.355,83.809c-0.176,2.367-6.413,4.271-14.097,4.271c-7.686,0-13.923-1.904-14.097-4.271v2.854     c-0.004,0.033-0.016,0.066-0.016,0.102c0,2.414,6.314,4.371,14.112,4.371c7.795,0,14.112-1.957,14.112-4.371     c0-0.035-0.014-0.068-0.016-0.102V83.809z" fill="#CD8833"/><path d="M100.268,83.707c0,2.055-5.379,3.72-12.009,3.72c-6.634,0-12.011-1.665-12.011-3.72     c0-2.053,5.377-3.719,12.011-3.719C94.889,79.988,100.268,81.654,100.268,83.707z" fill="#FDCE8C"/><path d="M99.355,83.707c0,1.898-4.971,3.438-11.097,3.438c-6.131,0-11.101-1.539-11.101-3.438     c0-1.896,4.97-3.438,11.101-3.438C94.385,80.27,99.355,81.811,99.355,83.707z" fill="#F2B359"/><path d="M102.371,79.719c0,2.414-6.317,4.371-14.112,4.371c-7.798,0-14.112-1.957-14.112-4.371     c0-2.415,6.314-4.371,14.112-4.371C96.054,75.348,102.371,77.304,102.371,79.719z" fill="#F2B359"/><path d="M102.355,79.82c-0.176,2.366-6.413,4.27-14.097,4.27c-7.686,0-13.923-1.903-14.097-4.27v2.852     c-0.004,0.035-0.016,0.068-0.016,0.102c0,2.414,6.314,4.371,14.112,4.371c7.795,0,14.112-1.957,14.112-4.371     c0-0.033-0.014-0.066-0.016-0.102V79.82z" fill="#CD8833"/><path d="M100.268,79.719c0,2.055-5.379,3.719-12.009,3.719c-6.634,0-12.011-1.664-12.011-3.719     S81.625,76,88.259,76C94.889,76,100.268,77.664,100.268,79.719z" fill="#FDCE8C"/><path d="M99.355,79.719c0,1.898-4.971,3.437-11.097,3.437c-6.131,0-11.101-1.538-11.101-3.437     s4.97-3.438,11.101-3.438C94.385,76.281,99.355,77.82,99.355,79.719z" fill="#F2B359"/><path d="M102.371,75.729c0,2.415-6.317,4.37-14.112,4.37c-7.798,0-14.112-1.955-14.112-4.37     s6.314-4.372,14.112-4.372C96.054,71.357,102.371,73.314,102.371,75.729z" fill="#F2B359"/><path d="M102.355,75.83c-0.176,2.367-6.413,4.27-14.097,4.27c-7.686,0-13.923-1.902-14.097-4.27v2.854     c-0.004,0.033-0.016,0.066-0.016,0.102c0,2.414,6.314,4.37,14.112,4.37c7.795,0,14.112-1.956,14.112-4.37     c0-0.035-0.014-0.068-0.016-0.102V75.83z" fill="#CD8833"/><path d="M100.268,75.729c0,2.054-5.379,3.719-12.009,3.719c-6.634,0-12.011-1.665-12.011-3.719     c0-2.056,5.377-3.72,12.011-3.72C94.889,72.01,100.268,73.674,100.268,75.729z" fill="#FDCE8C"/><path d="M99.355,75.729c0,1.897-4.971,3.437-11.097,3.437c-6.131,0-11.101-1.539-11.101-3.437     c0-1.899,4.97-3.438,11.101-3.438C94.385,72.291,99.355,73.83,99.355,75.729z" fill="#F2B359"/><path d="M102.371,71.74c0,2.414-6.317,4.37-14.112,4.37c-7.798,0-14.112-1.956-14.112-4.37     c0-2.415,6.314-4.372,14.112-4.372C96.054,67.368,102.371,69.325,102.371,71.74z" fill="#F2B359"/><path d="M102.355,71.84c-0.176,2.369-6.413,4.271-14.097,4.271c-7.686,0-13.923-1.901-14.097-4.271v2.854     c-0.004,0.033-0.016,0.067-0.016,0.101c0,2.414,6.314,4.371,14.112,4.371c7.795,0,14.112-1.957,14.112-4.371     c0-0.033-0.014-0.067-0.016-0.101V71.84z" fill="#CD8833"/><path d="M100.268,71.74c0,2.054-5.379,3.719-12.009,3.719c-6.634,0-12.011-1.665-12.011-3.719     c0-2.055,5.377-3.719,12.011-3.719C94.889,68.021,100.268,69.686,100.268,71.74z" fill="#FDCE8C"/><path d="M99.355,71.74c0,1.898-4.971,3.438-11.097,3.438c-6.131,0-11.101-1.539-11.101-3.438     s4.97-3.438,11.101-3.438C94.385,68.303,99.355,69.842,99.355,71.74z" fill="#F2B359"/></g><g><path d="M76.25,93.579c0,2.415-6.316,4.373-14.112,4.373c-7.798,0-14.112-1.958-14.112-4.373     c0-2.413,6.314-4.37,14.112-4.37C69.934,89.209,76.25,91.166,76.25,93.579z" fill="#F2B359"/><path d="M76.234,93.681c-0.176,2.368-6.413,4.271-14.097,4.271c-7.686,0-13.923-1.903-14.097-4.271v2.853     c-0.004,0.035-0.016,0.068-0.016,0.102c0,2.415,6.314,4.372,14.112,4.372c7.796,0,14.112-1.957,14.112-4.372     c0-0.033-0.014-0.066-0.016-0.102V93.681z" fill="#CD8833"/><path d="M74.146,93.579c0,2.056-5.379,3.72-12.009,3.72c-6.634,0-12.011-1.664-12.011-3.72     c0-2.054,5.377-3.719,12.011-3.719C68.768,89.86,74.146,91.525,74.146,93.579z" fill="#FDCE8C"/><path d="M73.234,93.579c0,1.899-4.971,3.438-11.097,3.438c-6.13,0-11.101-1.539-11.101-3.438     c0-1.897,4.971-3.437,11.101-3.437C68.264,90.143,73.234,91.682,73.234,93.579z" fill="#F2B359"/><path d="M76.25,89.59c0,2.415-6.316,4.372-14.112,4.372c-7.798,0-14.112-1.957-14.112-4.372     c0-2.414,6.314-4.37,14.112-4.37C69.934,85.22,76.25,87.176,76.25,89.59z" fill="#F2B359"/><path d="M76.234,89.691c-0.176,2.367-6.413,4.271-14.097,4.271c-7.686,0-13.923-1.903-14.097-4.271v2.853     c-0.004,0.035-0.016,0.068-0.016,0.102c0,2.415,6.314,4.372,14.112,4.372c7.796,0,14.112-1.957,14.112-4.372     c0-0.033-0.014-0.066-0.016-0.102V89.691z" fill="#CD8833"/><path d="M74.146,89.59c0,2.056-5.379,3.719-12.009,3.719c-6.634,0-12.011-1.663-12.011-3.719     c0-2.054,5.377-3.719,12.011-3.719C68.768,85.871,74.146,87.536,74.146,89.59z" fill="#FDCE8C"/><path d="M73.234,89.59c0,1.899-4.971,3.438-11.097,3.438c-6.13,0-11.101-1.538-11.101-3.438     c0-1.897,4.971-3.437,11.101-3.437C68.264,86.153,73.234,87.692,73.234,89.59z" fill="#F2B359"/><path d="M76.25,85.602c0,2.414-6.316,4.371-14.112,4.371c-7.798,0-14.112-1.957-14.112-4.371     s6.314-4.371,14.112-4.371C69.934,81.23,76.25,83.188,76.25,85.602z" fill="#F2B359"/><path d="M76.234,85.702c-0.176,2.368-6.413,4.271-14.097,4.271c-7.686,0-13.923-1.902-14.097-4.271v2.853     c-0.004,0.035-0.016,0.068-0.016,0.102c0,2.415,6.314,4.371,14.112,4.371c7.796,0,14.112-1.956,14.112-4.371     c0-0.033-0.014-0.066-0.016-0.102V85.702z" fill="#CD8833"/><path d="M74.146,85.602c0,2.055-5.379,3.719-12.009,3.719c-6.634,0-12.011-1.664-12.011-3.719     s5.377-3.72,12.011-3.72C68.768,81.882,74.146,83.547,74.146,85.602z" fill="#FDCE8C"/><path d="M73.234,85.602c0,1.898-4.971,3.438-11.097,3.438c-6.13,0-11.101-1.539-11.101-3.438     s4.971-3.438,11.101-3.438C68.264,82.164,73.234,83.703,73.234,85.602z" fill="#F2B359"/><path d="M76.25,81.611c0,2.415-6.316,4.371-14.112,4.371c-7.798,0-14.112-1.956-14.112-4.371     c0-2.414,6.314-4.371,14.112-4.371C69.934,77.24,76.25,79.197,76.25,81.611z" fill="#F2B359"/><path d="M76.234,81.712c-0.176,2.369-6.413,4.271-14.097,4.271c-7.686,0-13.923-1.901-14.097-4.271v2.854     c-0.004,0.033-0.016,0.067-0.016,0.101c0,2.414,6.314,4.372,14.112,4.372c7.796,0,14.112-1.958,14.112-4.372     c0-0.033-0.014-0.067-0.016-0.101V81.712z" fill="#CD8833"/><path d="M74.146,81.611c0,2.055-5.379,3.721-12.009,3.721c-6.634,0-12.011-1.666-12.011-3.721     c0-2.054,5.377-3.719,12.011-3.719C68.768,77.893,74.146,79.558,74.146,81.611z" fill="#FDCE8C"/><path d="M73.234,81.611c0,1.899-4.971,3.438-11.097,3.438c-6.13,0-11.101-1.539-11.101-3.438     c0-1.897,4.971-3.437,11.101-3.437C68.264,78.175,73.234,79.714,73.234,81.611z" fill="#F2B359"/></g><g><ellipse cx="85.896" cy="87.002" fill="#F2B359" rx="14.112" ry="4.371" transform="matrix(0.7054 0.7089 -0.7089 0.7054 86.9803 -35.2526)"/><path d="M95.768,97.065c-1.803,1.547-7.551-1.533-12.971-6.979c-5.422-5.448-8.472-11.211-6.914-13.005     l-2.025,2.013c-0.027,0.021-0.059,0.037-0.082,0.06c-1.712,1.703,1.357,7.562,6.855,13.088c5.5,5.525,11.344,8.622,13.053,6.919     c0.025-0.021,0.039-0.057,0.063-0.082L95.768,97.065z" fill="#CD8833"/><path d="M94.365,95.516c-1.457,1.449-6.429-1.189-11.105-5.89c-4.68-4.702-7.291-9.688-5.836-11.138     c1.457-1.448,6.43,1.188,11.107,5.893C93.207,89.079,95.822,94.066,94.365,95.516z" fill="#FDCE8C"/><path d="M93.723,94.869c-1.346,1.34-5.943-1.1-10.264-5.441c-4.326-4.346-6.74-8.954-5.393-10.293     c1.346-1.34,5.941,1.098,10.267,5.443C92.653,88.92,95.068,93.529,93.723,94.869z" fill="#F2B359"/></g><g><path d="M51.586,80.779c1.625,1.785-1.727,7.484-7.488,12.736c-5.764,5.251-11.748,8.061-13.373,6.274     c-1.629-1.785,1.721-7.485,7.484-12.736C43.971,81.803,49.957,78.994,51.586,80.779z" fill="#F2B359"/><path d="M51.641,80.863c1.465,1.869-1.863,7.477-7.543,12.652c-5.682,5.178-11.57,7.972-13.296,6.338l1.924,2.11     c0.019,0.028,0.032,0.062,0.055,0.085c1.626,1.785,7.612-1.023,13.376-6.275c5.762-5.251,9.111-10.953,7.485-12.736     c-0.022-0.025-0.055-0.041-0.079-0.064L51.641,80.863z" fill="#CD8833"/><ellipse cx="41.154" cy="90.286" fill="#FDCE8C" rx="12.009" ry="3.717" transform="matrix(0.7391 -0.6736 0.6736 0.7391 -50.0772 51.2716)"/><ellipse cx="41.152" cy="90.286" fill="#F2B359" rx="11.098" ry="3.438" transform="matrix(0.7391 -0.6735 0.6735 0.7391 -50.0768 51.2694)"/></g></g></g></svg>